<mxfile host="app.diagrams.net" modified="2020-05-15T06:32:33.015Z" agent="5.0 (Macintosh; Intel Mac OS X 10_13_3) AppleWebKit/537.36 (KHTML, like Gecko) Chrome/80.0.3987.149 Safari/537.36" etag="rblA-mM0siyiHmmJnWl4" version="13.0.1" type="github">
  <diagram id="RQwwGhpR25mgCjyYO-BM" name="Page-1">
    <mxGraphModel dx="946" dy="552" grid="1" gridSize="10" guides="1" tooltips="1" connect="1" arrows="1" fold="1" page="1" pageScale="1" pageWidth="827" pageHeight="1169" math="0" shadow="0">
      <root>
        <mxCell id="0" />
        <mxCell id="1" parent="0" />
        <mxCell id="McqzRWmcmtrsy8lPVLtV-19" style="edgeStyle=orthogonalEdgeStyle;rounded=0;orthogonalLoop=1;jettySize=auto;html=1;exitX=0.25;exitY=1;exitDx=0;exitDy=0;entryX=0.5;entryY=0;entryDx=0;entryDy=0;fontSize=15;" parent="1" source="McqzRWmcmtrsy8lPVLtV-1" target="McqzRWmcmtrsy8lPVLtV-10" edge="1">
          <mxGeometry relative="1" as="geometry" />
        </mxCell>
        <mxCell id="McqzRWmcmtrsy8lPVLtV-20" value="修饰方向判定" style="edgeLabel;html=1;align=center;verticalAlign=middle;resizable=0;points=[];fillColor=#FFFF99;fontSize=15;" parent="McqzRWmcmtrsy8lPVLtV-19" vertex="1" connectable="0">
          <mxGeometry x="-0.05" y="-1" relative="1" as="geometry">
            <mxPoint as="offset" />
          </mxGeometry>
        </mxCell>
        <mxCell id="McqzRWmcmtrsy8lPVLtV-22" style="edgeStyle=orthogonalEdgeStyle;rounded=0;orthogonalLoop=1;jettySize=auto;html=1;exitX=0.75;exitY=1;exitDx=0;exitDy=0;entryX=0.5;entryY=0;entryDx=0;entryDy=0;fontSize=15;" parent="1" source="McqzRWmcmtrsy8lPVLtV-1" target="McqzRWmcmtrsy8lPVLtV-21" edge="1">
          <mxGeometry relative="1" as="geometry" />
        </mxCell>
        <mxCell id="McqzRWmcmtrsy8lPVLtV-51" value="关系判定" style="edgeLabel;html=1;align=center;verticalAlign=middle;resizable=0;points=[];fillColor=#FFFF99;fontSize=15;" parent="McqzRWmcmtrsy8lPVLtV-22" vertex="1" connectable="0">
          <mxGeometry x="-0.0377" y="-3" relative="1" as="geometry">
            <mxPoint as="offset" />
          </mxGeometry>
        </mxCell>
        <mxCell id="McqzRWmcmtrsy8lPVLtV-1" value="开始判定" style="rounded=1;whiteSpace=wrap;html=1;absoluteArcSize=1;arcSize=14;strokeWidth=2;fontSize=15;fillColor=#d5e8d4;strokeColor=#82b366;" parent="1" vertex="1">
          <mxGeometry x="370" y="10" width="100" height="100" as="geometry" />
        </mxCell>
        <mxCell id="McqzRWmcmtrsy8lPVLtV-2" value="可降级偏移" style="strokeWidth=2;html=1;shape=mxgraph.flowchart.terminator;whiteSpace=wrap;fillColor=#2EA4FF;fontSize=15;" parent="1" vertex="1">
          <mxGeometry x="827" y="100" width="100" height="60" as="geometry" />
        </mxCell>
        <mxCell id="McqzRWmcmtrsy8lPVLtV-3" value="别名、曾用名" style="strokeWidth=2;html=1;shape=mxgraph.flowchart.terminator;whiteSpace=wrap;fillColor=#80FF00;fontSize=15;" parent="1" vertex="1">
          <mxGeometry x="300" y="585" width="100" height="60" as="geometry" />
        </mxCell>
        <mxCell id="McqzRWmcmtrsy8lPVLtV-4" value="水平包含" style="strokeWidth=2;html=1;shape=mxgraph.flowchart.terminator;whiteSpace=wrap;fillColor=#2EA4FF;fontSize=15;" parent="1" vertex="1">
          <mxGeometry x="827" y="370" width="100" height="60" as="geometry" />
        </mxCell>
        <mxCell id="McqzRWmcmtrsy8lPVLtV-5" value="垂直包含" style="strokeWidth=2;html=1;shape=mxgraph.flowchart.terminator;whiteSpace=wrap;fillColor=#2EA4FF;fontSize=15;" parent="1" vertex="1">
          <mxGeometry x="827" y="280" width="100" height="60" as="geometry" />
        </mxCell>
        <mxCell id="McqzRWmcmtrsy8lPVLtV-6" value="不可降级偏移" style="strokeWidth=2;html=1;shape=mxgraph.flowchart.terminator;whiteSpace=wrap;fillColor=#2EA4FF;fontSize=15;" parent="1" vertex="1">
          <mxGeometry x="827" y="200" width="100" height="60" as="geometry" />
        </mxCell>
        <mxCell id="McqzRWmcmtrsy8lPVLtV-7" value="正向" style="strokeWidth=2;html=1;shape=mxgraph.flowchart.terminator;whiteSpace=wrap;fillColor=#FF9933;fontSize=15;" parent="1" vertex="1">
          <mxGeometry x="30" y="150" width="100" height="60" as="geometry" />
        </mxCell>
        <mxCell id="McqzRWmcmtrsy8lPVLtV-8" value="反向" style="strokeWidth=2;html=1;shape=mxgraph.flowchart.terminator;whiteSpace=wrap;fillColor=#FF9933;fontSize=15;" parent="1" vertex="1">
          <mxGeometry x="30" y="250" width="100" height="60" as="geometry" />
        </mxCell>
        <mxCell id="McqzRWmcmtrsy8lPVLtV-9" value="末级" style="strokeWidth=2;html=1;shape=mxgraph.flowchart.terminator;whiteSpace=wrap;fillColor=#80FF00;fontSize=15;" parent="1" vertex="1">
          <mxGeometry x="190" y="585" width="100" height="60" as="geometry" />
        </mxCell>
        <mxCell id="McqzRWmcmtrsy8lPVLtV-14" style="edgeStyle=orthogonalEdgeStyle;rounded=0;orthogonalLoop=1;jettySize=auto;html=1;exitX=0;exitY=0.5;exitDx=0;exitDy=0;entryX=1;entryY=0.5;entryDx=0;entryDy=0;fillColor=#FFFF99;fontSize=15;" parent="1" source="McqzRWmcmtrsy8lPVLtV-10" target="McqzRWmcmtrsy8lPVLtV-13" edge="1">
          <mxGeometry relative="1" as="geometry" />
        </mxCell>
        <mxCell id="McqzRWmcmtrsy8lPVLtV-39" value="是" style="edgeLabel;html=1;align=center;verticalAlign=middle;resizable=0;points=[];fillColor=#FFFF99;fontSize=15;" parent="McqzRWmcmtrsy8lPVLtV-14" vertex="1" connectable="0">
          <mxGeometry x="0.04" y="-2" relative="1" as="geometry">
            <mxPoint as="offset" />
          </mxGeometry>
        </mxCell>
        <mxCell id="McqzRWmcmtrsy8lPVLtV-43" style="edgeStyle=orthogonalEdgeStyle;rounded=0;orthogonalLoop=1;jettySize=auto;html=1;exitX=0.5;exitY=1;exitDx=0;exitDy=0;fontSize=15;" parent="1" source="McqzRWmcmtrsy8lPVLtV-10" target="McqzRWmcmtrsy8lPVLtV-9" edge="1">
          <mxGeometry relative="1" as="geometry">
            <Array as="points">
              <mxPoint x="350" y="360" />
              <mxPoint x="220" y="360" />
            </Array>
          </mxGeometry>
        </mxCell>
        <mxCell id="McqzRWmcmtrsy8lPVLtV-44" value="否" style="edgeLabel;html=1;align=center;verticalAlign=middle;resizable=0;points=[];fillColor=#FFFF99;fontSize=15;" parent="McqzRWmcmtrsy8lPVLtV-43" vertex="1" connectable="0">
          <mxGeometry x="-0.0837" y="3" relative="1" as="geometry">
            <mxPoint as="offset" />
          </mxGeometry>
        </mxCell>
        <mxCell id="McqzRWmcmtrsy8lPVLtV-10" value="是否修饰其他实体" style="rhombus;whiteSpace=wrap;html=1;fillColor=#FFFF99;fontSize=15;" parent="1" vertex="1">
          <mxGeometry x="310" y="190" width="80" height="80" as="geometry" />
        </mxCell>
        <mxCell id="McqzRWmcmtrsy8lPVLtV-15" style="edgeStyle=orthogonalEdgeStyle;rounded=0;orthogonalLoop=1;jettySize=auto;html=1;exitX=0;exitY=0.5;exitDx=0;exitDy=0;entryX=1;entryY=0.5;entryDx=0;entryDy=0;entryPerimeter=0;fontSize=15;" parent="1" source="McqzRWmcmtrsy8lPVLtV-13" target="McqzRWmcmtrsy8lPVLtV-7" edge="1">
          <mxGeometry relative="1" as="geometry" />
        </mxCell>
        <mxCell id="McqzRWmcmtrsy8lPVLtV-17" value="向后" style="edgeLabel;html=1;align=center;verticalAlign=middle;resizable=0;points=[];fillColor=#FF9933;fontSize=15;" parent="McqzRWmcmtrsy8lPVLtV-15" vertex="1" connectable="0">
          <mxGeometry x="0.0918" relative="1" as="geometry">
            <mxPoint as="offset" />
          </mxGeometry>
        </mxCell>
        <mxCell id="McqzRWmcmtrsy8lPVLtV-16" style="edgeStyle=orthogonalEdgeStyle;rounded=0;orthogonalLoop=1;jettySize=auto;html=1;exitX=0;exitY=0.5;exitDx=0;exitDy=0;fontSize=15;" parent="1" source="McqzRWmcmtrsy8lPVLtV-13" target="McqzRWmcmtrsy8lPVLtV-8" edge="1">
          <mxGeometry relative="1" as="geometry" />
        </mxCell>
        <mxCell id="McqzRWmcmtrsy8lPVLtV-18" value="向前" style="edgeLabel;html=1;align=center;verticalAlign=middle;resizable=0;points=[];fillColor=#FF9933;fontSize=15;" parent="McqzRWmcmtrsy8lPVLtV-16" vertex="1" connectable="0">
          <mxGeometry x="0.042" relative="1" as="geometry">
            <mxPoint as="offset" />
          </mxGeometry>
        </mxCell>
        <mxCell id="McqzRWmcmtrsy8lPVLtV-13" value="向前修饰还是向后修饰" style="rhombus;whiteSpace=wrap;html=1;fillColor=#FFFF99;fontSize=15;" parent="1" vertex="1">
          <mxGeometry x="200" y="190" width="80" height="80" as="geometry" />
        </mxCell>
        <mxCell id="McqzRWmcmtrsy8lPVLtV-24" style="edgeStyle=orthogonalEdgeStyle;rounded=0;orthogonalLoop=1;jettySize=auto;html=1;exitX=0.5;exitY=1;exitDx=0;exitDy=0;entryX=0;entryY=0.5;entryDx=0;entryDy=0;fillColor=#FFFF99;fontSize=15;" parent="1" source="McqzRWmcmtrsy8lPVLtV-21" target="McqzRWmcmtrsy8lPVLtV-23" edge="1">
          <mxGeometry relative="1" as="geometry" />
        </mxCell>
        <mxCell id="McqzRWmcmtrsy8lPVLtV-25" value="空间包含" style="edgeLabel;html=1;align=center;verticalAlign=middle;resizable=0;points=[];fillColor=#FFFF99;fontSize=15;" parent="McqzRWmcmtrsy8lPVLtV-24" vertex="1" connectable="0">
          <mxGeometry x="-0.0333" relative="1" as="geometry">
            <mxPoint as="offset" />
          </mxGeometry>
        </mxCell>
        <mxCell id="McqzRWmcmtrsy8lPVLtV-33" value="空间偏移" style="edgeStyle=orthogonalEdgeStyle;rounded=0;orthogonalLoop=1;jettySize=auto;html=1;exitX=1;exitY=0.5;exitDx=0;exitDy=0;fillColor=#FFFF99;fontSize=15;" parent="1" source="McqzRWmcmtrsy8lPVLtV-21" target="McqzRWmcmtrsy8lPVLtV-32" edge="1">
          <mxGeometry relative="1" as="geometry" />
        </mxCell>
        <mxCell id="I-YkKhIDfA9IQ0hiw3q9-2" style="edgeStyle=orthogonalEdgeStyle;rounded=0;orthogonalLoop=1;jettySize=auto;html=1;exitX=0;exitY=0.5;exitDx=0;exitDy=0;fillColor=#FFFF99;fontSize=15;" edge="1" parent="1" source="McqzRWmcmtrsy8lPVLtV-21" target="I-YkKhIDfA9IQ0hiw3q9-1">
          <mxGeometry relative="1" as="geometry" />
        </mxCell>
        <mxCell id="I-YkKhIDfA9IQ0hiw3q9-3" value="逻辑关系" style="edgeLabel;html=1;align=center;verticalAlign=middle;resizable=0;points=[];fontSize=15;" vertex="1" connectable="0" parent="I-YkKhIDfA9IQ0hiw3q9-2">
          <mxGeometry x="0.3163" y="-2" relative="1" as="geometry">
            <mxPoint as="offset" />
          </mxGeometry>
        </mxCell>
        <mxCell id="McqzRWmcmtrsy8lPVLtV-21" value="空间关系还是逻辑关系" style="rhombus;whiteSpace=wrap;html=1;fillColor=#FFFF99;fontSize=15;" parent="1" vertex="1">
          <mxGeometry x="440" y="190" width="80" height="80" as="geometry" />
        </mxCell>
        <mxCell id="McqzRWmcmtrsy8lPVLtV-26" style="edgeStyle=orthogonalEdgeStyle;rounded=0;orthogonalLoop=1;jettySize=auto;html=1;exitX=1;exitY=0.5;exitDx=0;exitDy=0;fontSize=15;" parent="1" source="McqzRWmcmtrsy8lPVLtV-23" target="McqzRWmcmtrsy8lPVLtV-4" edge="1">
          <mxGeometry relative="1" as="geometry" />
        </mxCell>
        <mxCell id="McqzRWmcmtrsy8lPVLtV-30" style="edgeStyle=orthogonalEdgeStyle;rounded=0;orthogonalLoop=1;jettySize=auto;html=1;exitX=0.5;exitY=0;exitDx=0;exitDy=0;entryX=0;entryY=0.5;entryDx=0;entryDy=0;entryPerimeter=0;fontSize=15;" parent="1" source="McqzRWmcmtrsy8lPVLtV-23" target="McqzRWmcmtrsy8lPVLtV-5" edge="1">
          <mxGeometry relative="1" as="geometry" />
        </mxCell>
        <mxCell id="McqzRWmcmtrsy8lPVLtV-31" value="否" style="edgeLabel;html=1;align=center;verticalAlign=middle;resizable=0;points=[];fillColor=#FFFF99;fontSize=15;" parent="McqzRWmcmtrsy8lPVLtV-30" vertex="1" connectable="0">
          <mxGeometry x="0.284" y="-2" relative="1" as="geometry">
            <mxPoint as="offset" />
          </mxGeometry>
        </mxCell>
        <mxCell id="McqzRWmcmtrsy8lPVLtV-23" value="修饰侧是否是多个建筑物组成的一个区域" style="rhombus;whiteSpace=wrap;html=1;fillColor=#FFFF99;fontSize=15;" parent="1" vertex="1">
          <mxGeometry x="615" y="360" width="80" height="80" as="geometry" />
        </mxCell>
        <mxCell id="McqzRWmcmtrsy8lPVLtV-27" value="是" style="text;html=1;align=center;verticalAlign=middle;resizable=0;points=[];autosize=1;fontSize=15;" parent="1" vertex="1">
          <mxGeometry x="742" y="404" width="30" height="20" as="geometry" />
        </mxCell>
        <mxCell id="McqzRWmcmtrsy8lPVLtV-34" style="edgeStyle=orthogonalEdgeStyle;rounded=0;orthogonalLoop=1;jettySize=auto;html=1;exitX=1;exitY=0.5;exitDx=0;exitDy=0;fontSize=15;" parent="1" source="McqzRWmcmtrsy8lPVLtV-32" target="McqzRWmcmtrsy8lPVLtV-6" edge="1">
          <mxGeometry relative="1" as="geometry" />
        </mxCell>
        <mxCell id="McqzRWmcmtrsy8lPVLtV-38" value="否" style="edgeLabel;html=1;align=center;verticalAlign=middle;resizable=0;points=[];fontSize=15;" parent="McqzRWmcmtrsy8lPVLtV-34" vertex="1" connectable="0">
          <mxGeometry x="0.1749" relative="1" as="geometry">
            <mxPoint as="offset" />
          </mxGeometry>
        </mxCell>
        <mxCell id="McqzRWmcmtrsy8lPVLtV-36" style="edgeStyle=orthogonalEdgeStyle;rounded=0;orthogonalLoop=1;jettySize=auto;html=1;exitX=0.5;exitY=0;exitDx=0;exitDy=0;entryX=0;entryY=0.5;entryDx=0;entryDy=0;entryPerimeter=0;fontSize=15;" parent="1" source="McqzRWmcmtrsy8lPVLtV-32" target="McqzRWmcmtrsy8lPVLtV-2" edge="1">
          <mxGeometry relative="1" as="geometry" />
        </mxCell>
        <mxCell id="McqzRWmcmtrsy8lPVLtV-37" value="是" style="edgeLabel;html=1;align=center;verticalAlign=middle;resizable=0;points=[];fontSize=15;" parent="McqzRWmcmtrsy8lPVLtV-36" vertex="1" connectable="0">
          <mxGeometry x="0.4899" relative="1" as="geometry">
            <mxPoint as="offset" />
          </mxGeometry>
        </mxCell>
        <mxCell id="McqzRWmcmtrsy8lPVLtV-32" value="是否可降级&lt;br&gt;（判定规则见解释）" style="rhombus;whiteSpace=wrap;html=1;fillColor=#FFFF99;fontSize=15;" parent="1" vertex="1">
          <mxGeometry x="615" y="190" width="80" height="80" as="geometry" />
        </mxCell>
        <mxCell id="McqzRWmcmtrsy8lPVLtV-47" value="" style="endArrow=classic;html=1;fontSize=15;" parent="1" edge="1">
          <mxGeometry width="50" height="50" relative="1" as="geometry">
            <mxPoint x="80" y="400" as="sourcePoint" />
            <mxPoint x="590" y="520" as="targetPoint" />
          </mxGeometry>
        </mxCell>
        <mxCell id="McqzRWmcmtrsy8lPVLtV-48" value="" style="endArrow=classic;html=1;fontSize=15;" parent="1" edge="1">
          <mxGeometry width="50" height="50" relative="1" as="geometry">
            <mxPoint x="880" y="450" as="sourcePoint" />
            <mxPoint x="590" y="520" as="targetPoint" />
          </mxGeometry>
        </mxCell>
        <mxCell id="McqzRWmcmtrsy8lPVLtV-49" value="方向*关系=8类" style="strokeWidth=2;html=1;shape=mxgraph.flowchart.terminator;whiteSpace=wrap;fillColor=#80FF00;fontSize=15;" parent="1" vertex="1">
          <mxGeometry x="540" y="585" width="100" height="60" as="geometry" />
        </mxCell>
        <mxCell id="McqzRWmcmtrsy8lPVLtV-50" value="" style="html=1;shadow=0;dashed=0;align=center;verticalAlign=middle;shape=mxgraph.arrows2.arrow;dy=0.6;dx=40;direction=south;notch=0;fontSize=15;" parent="1" vertex="1">
          <mxGeometry x="565" y="520" width="50" height="65" as="geometry" />
        </mxCell>
        <mxCell id="I-YkKhIDfA9IQ0hiw3q9-4" style="edgeStyle=orthogonalEdgeStyle;rounded=0;orthogonalLoop=1;jettySize=auto;html=1;exitX=0.5;exitY=1;exitDx=0;exitDy=0;fillColor=#FFFF99;fontSize=15;" edge="1" parent="1" source="I-YkKhIDfA9IQ0hiw3q9-1" target="McqzRWmcmtrsy8lPVLtV-3">
          <mxGeometry relative="1" as="geometry" />
        </mxCell>
        <mxCell id="I-YkKhIDfA9IQ0hiw3q9-5" value="等价" style="edgeLabel;html=1;align=center;verticalAlign=middle;resizable=0;points=[];fontSize=15;" vertex="1" connectable="0" parent="I-YkKhIDfA9IQ0hiw3q9-4">
          <mxGeometry x="0.02" y="-3" relative="1" as="geometry">
            <mxPoint as="offset" />
          </mxGeometry>
        </mxCell>
        <mxCell id="I-YkKhIDfA9IQ0hiw3q9-7" style="edgeStyle=orthogonalEdgeStyle;rounded=0;orthogonalLoop=1;jettySize=auto;html=1;exitX=0.5;exitY=1;exitDx=0;exitDy=0;entryX=0.5;entryY=0;entryDx=0;entryDy=0;entryPerimeter=0;fillColor=#FFFF99;fontSize=15;" edge="1" parent="1" source="I-YkKhIDfA9IQ0hiw3q9-1" target="I-YkKhIDfA9IQ0hiw3q9-6">
          <mxGeometry relative="1" as="geometry" />
        </mxCell>
        <mxCell id="I-YkKhIDfA9IQ0hiw3q9-1" value="属于分支还是等价" style="rhombus;whiteSpace=wrap;html=1;fillColor=#FFFF99;fontSize=15;" vertex="1" parent="1">
          <mxGeometry x="370" y="390" width="80" height="80" as="geometry" />
        </mxCell>
        <mxCell id="I-YkKhIDfA9IQ0hiw3q9-6" value="主体分支" style="strokeWidth=2;html=1;shape=mxgraph.flowchart.terminator;whiteSpace=wrap;fillColor=#80FF00;fontSize=15;" vertex="1" parent="1">
          <mxGeometry x="420" y="585" width="100" height="60" as="geometry" />
        </mxCell>
      </root>
    </mxGraphModel>
  </diagram>
</mxfile>
